# This file uses meters as units for non-parametric coordinates.

mtllib chasse neige_v2.mtl
g default
v -3.591367 0.973732 73.450211
v 3.591367 0.973732 73.450211
v -3.591367 119.622360 9.576462
v 3.591367 119.622360 9.576462
v -137.709717 121.804260 -44.480576
v 137.709717 121.804260 -44.480576
v -137.709717 1.820885 -44.480576
v 137.709717 1.820885 -44.480576
v -3.591367 90.401146 13.377487
v -137.709717 91.710281 -44.480576
v 137.709717 91.710281 -44.480576
v 3.591367 90.401146 13.377487
v -3.591367 23.562408 51.264389
v -137.709717 29.132324 -44.480576
v 137.709717 29.132324 -44.480576
v 3.591367 23.562408 51.264389
v -137.709717 66.147453 -44.480576
v -3.591367 66.060188 23.383743
v 3.591367 66.060188 23.383743
v 137.709717 66.147453 -44.480576
v 0.000000 0.973732 73.450211
v 0.000000 23.562408 51.264389
v 0.000000 66.060188 23.383743
v 0.000000 90.401146 13.377487
v 0.000000 119.622360 9.576462
v 0.000000 121.804260 -25.321030
v 0.000000 91.807808 -28.217316
v 0.000000 65.126663 -27.782730
v 0.000000 19.415237 -9.844315
v 0.000000 1.789959 17.623703
v 54.361073 43.148102 -32.055466
v 59.031433 43.148102 -32.055466
v 54.361073 52.488777 -32.055466
v 59.031433 52.488777 -32.055466
v 54.361073 52.488777 -57.218552
v 59.031433 52.488777 -57.218552
v 54.361073 43.148102 -57.218552
v 59.031433 43.148102 -57.218552
v -54.361069 43.148102 -32.055466
v -59.031425 43.148102 -32.055466
v -54.361069 52.488777 -32.055466
v -59.031425 52.488777 -32.055466
v -54.361069 52.488777 -57.218552
v -59.031425 52.488777 -57.218552
v -54.361069 43.148102 -57.218552
v -59.031425 43.148102 -57.218552
vt 0.381113 0.449973
vt 0.381113 0.454469
vt 0.001515 0.439957
vt 0.999377 0.526527
vt 0.919668 0.120196
vt 0.889564 0.909261
vt 0.368241 0.001852
vt 0.368341 0.902594
vt 0.000103 0.902699
vt 0.000000 0.001830
vt 0.088999 0.439893
vt 0.090106 0.001213
vt 0.835815 0.115743
vt 0.805616 0.907313
vt 0.090208 0.903295
vt 0.089003 0.464616
vt 0.303769 0.442489
vt 0.281229 0.000000
vt 0.662358 0.104365
vt 0.631796 0.905442
vt 0.281330 0.904465
vt 0.303771 0.461970
vt 0.167401 0.000605
vt 0.764767 0.111729
vt 0.165183 0.440505
vt 0.165187 0.463985
vt 0.734468 0.905902
vt 0.167503 0.903885
vt 0.381018 0.452221
vt 0.303665 0.452229
vt 0.165097 0.452245
vt 0.088964 0.452254
vt 0.999681 0.518356
vt 0.899638 0.514539
vt 0.811572 0.511179
vt 0.733389 0.508196
vt 0.589319 0.502700
vt 0.503286 0.452208
vt 0.001514 0.452265
vt 0.001519 0.464573
vt 1.000000 0.510185
vt 0.497704 0.499205
vt 0.555678 0.909324
vt 0.586757 0.094694
vt 0.648724 0.109989
vt 0.703713 0.109981
vt 0.703727 0.219959
vt 0.648738 0.219967
vt 0.703767 0.516232
vt 0.648777 0.516239
vt 0.703781 0.626210
vt 0.648792 0.626217
vt 0.703821 0.922482
vt 0.648831 0.922490
vt 0.999985 0.109942
vt 1.000000 0.219920
vt 0.352451 0.110028
vt 0.352466 0.220006
vt 0.351262 0.000050
vt 0.351280 0.110028
vt 0.296291 0.110037
vt 0.296273 0.000059
vt 0.351330 0.406300
vt 0.296340 0.406309
vt 0.351348 0.516278
vt 0.296359 0.516287
vt 0.351398 0.812550
vt 0.296408 0.812560
vt 0.000018 0.110086
vt 0.000000 0.000108
vt 0.647534 0.000000
vt 0.647553 0.109978
vn 0.000000 0.700716 0.713440
vn 0.000000 0.700716 0.713440
vn 0.000000 0.609711 0.792624
vn 0.000000 0.609711 0.792624
vn -0.008345 0.998070 0.061544
vn 0.000000 0.998104 0.061546
vn 0.000000 0.998104 0.061546
vn -0.008345 0.998070 0.061544
vn 0.210821 -0.321236 -0.923234
vn 0.000000 -0.354084 -0.935214
vn 0.000000 -0.521542 -0.853225
vn 0.270732 -0.502065 -0.821361
vn 0.006036 -0.999881 -0.014231
vn 0.000000 -0.999899 -0.014231
vn 0.000000 -0.999899 -0.014231
vn 0.006036 -0.999881 -0.014231
vn 0.583328 0.329980 0.742187
vn 0.583328 0.329980 0.742187
vn 0.530841 0.305123 0.790638
vn 0.542976 0.310897 0.780077
vn -0.583328 0.329980 0.742187
vn -0.583328 0.329980 0.742187
vn -0.542976 0.310897 0.780077
vn -0.530841 0.305123 0.790638
vn -0.399833 0.114613 0.909394
vn -0.401054 0.119015 0.908290
vn -0.383728 0.059055 0.921556
vn -0.383728 0.059055 0.921556
vn 0.127401 0.047751 -0.990701
vn 0.000000 0.048143 -0.998841
vn -0.000000 0.022005 -0.999758
vn 0.123452 0.021729 -0.992113
vn 0.401054 0.119015 0.908290
vn 0.399833 0.114613 0.909394
vn 0.383728 0.059055 0.921556
vn 0.383728 0.059055 0.921556
vn 0.000000 0.249620 0.968344
vn 0.000000 0.249620 0.968344
vn 0.000000 0.128991 0.991646
vn 0.000000 0.128991 0.991646
vn -0.467146 0.248398 0.848571
vn -0.471641 0.254808 0.844173
vn 0.000000 -0.136693 -0.990614
vn 0.152044 -0.132868 -0.979402
vn 0.471641 0.254808 0.844173
vn 0.467146 0.248398 0.848571
vn 0.000000 0.493127 0.869957
vn 0.000000 0.493127 0.869957
vn 0.000000 0.700716 0.713440
vn 0.000000 0.609711 0.792624
vn 0.000000 0.493127 0.869957
vn 0.000000 0.249620 0.968344
vn 0.000000 0.128991 0.991646
vn 0.008345 0.998070 0.061544
vn 0.008345 0.998070 0.061544
vn -0.127401 0.047751 -0.990701
vn -0.123452 0.021729 -0.992113
vn -0.152044 -0.132868 -0.979402
vn -0.210821 -0.321236 -0.923234
vn -0.270732 -0.502065 -0.821361
vn -0.006036 -0.999881 -0.014231
vn -0.006036 -0.999881 -0.014231
vn 0.000000 0.000000 1.000000
vn 0.000000 0.000000 1.000000
vn 0.000000 0.000000 1.000000
vn 0.000000 0.000000 1.000000
vn 0.000000 1.000000 0.000000
vn 0.000000 1.000000 0.000000
vn 0.000000 1.000000 0.000000
vn 0.000000 1.000000 0.000000
vn 0.000000 0.000000 -1.000000
vn 0.000000 0.000000 -1.000000
vn 0.000000 0.000000 -1.000000
vn 0.000000 0.000000 -1.000000
vn 0.000000 -1.000000 0.000000
vn 0.000000 -1.000000 0.000000
vn 0.000000 -1.000000 0.000000
vn 0.000000 -1.000000 0.000000
vn 1.000000 0.000000 0.000000
vn 1.000000 0.000000 0.000000
vn 1.000000 0.000000 0.000000
vn 1.000000 0.000000 0.000000
vn -1.000000 0.000000 0.000000
vn -1.000000 0.000000 0.000000
vn -1.000000 0.000000 0.000000
vn -1.000000 0.000000 0.000000
vn 0.000000 0.000000 1.000000
vn 0.000000 0.000000 1.000000
vn 0.000000 0.000000 1.000000
vn 0.000000 0.000000 1.000000
vn 0.000000 1.000000 0.000000
vn 0.000000 1.000000 0.000000
vn 0.000000 1.000000 0.000000
vn 0.000000 1.000000 0.000000
vn 0.000000 0.000000 -1.000000
vn 0.000000 0.000000 -1.000000
vn 0.000000 0.000000 -1.000000
vn 0.000000 0.000000 -1.000000
vn 0.000000 -1.000000 0.000000
vn 0.000000 -1.000000 0.000000
vn 0.000000 -1.000000 0.000000
vn 0.000000 -1.000000 0.000000
vn -1.000000 0.000000 0.000000
vn -1.000000 0.000000 0.000000
vn -1.000000 0.000000 0.000000
vn -1.000000 0.000000 0.000000
vn 1.000000 0.000000 0.000000
vn 1.000000 0.000000 0.000000
vn 1.000000 0.000000 0.000000
vn 1.000000 0.000000 0.000000
s 1
g chasse_neige2
usemtl initialShadingGroup
f 1/1/1 21/29/2 22/30/3 13/17/4
s 2
f 3/41/5 25/33/6 26/34/7 5/5/8
s 3
f 14/19/9 29/37/10 30/42/11 7/44/12
s 4
f 7/7/13 30/38/14 21/29/15 1/1/16
s 5
f 2/2/17 8/8/18 15/21/19 16/22/20
s 6
f 7/7/21 1/1/22 13/17/23 14/18/24
f 10/12/25 9/11/26 3/3/27 5/10/28
s 3
f 5/5/29 26/34/30 27/35/31 10/13/32
s 5
f 12/16/33 11/15/34 6/9/35 4/40/36
s 1
f 9/11/37 24/32/38 25/39/39 3/3/40
s 6
f 17/23/41 18/25/42 9/11/26 10/12/25
s 3
f 10/13/32 27/35/31 28/36/43 17/24/44
s 5
f 19/26/45 20/28/46 11/15/34 12/16/33
s 1
f 18/25/47 23/31/48 24/32/38 9/11/37
s 6
f 14/18/24 13/17/23 18/25/42 17/23/41
s 1
f 13/17/4 22/30/3 23/31/48 18/25/47
s 5
f 16/22/20 15/21/19 20/28/46 19/26/45
s 3
f 17/24/44 28/36/43 29/37/10 14/19/9
s 1
f 22/30/3 21/29/2 2/2/49 16/22/50
f 23/31/48 22/30/3 16/22/50 19/26/51
f 24/32/38 23/31/48 19/26/51 12/16/52
f 25/39/39 24/32/38 12/16/52 4/40/53
s 2
f 26/34/7 25/33/6 4/4/54 6/6/55
s 3
f 27/35/31 26/34/30 6/6/56 11/14/57
f 28/36/43 27/35/31 11/14/57 20/27/58
f 29/37/10 28/36/43 20/27/58 15/20/59
f 30/42/11 29/37/10 15/20/59 8/43/60
s 4
f 21/29/15 30/38/14 8/8/61 2/2/62
s off
f 31/45/63 32/46/64 34/47/65 33/48/66
f 33/48/67 34/47/68 36/49/69 35/50/70
f 35/50/71 36/49/72 38/51/73 37/52/74
f 37/52/75 38/51/76 32/53/77 31/54/78
f 32/46/79 38/55/80 36/56/81 34/47/82
f 37/57/83 31/45/84 33/48/85 35/58/86
f 39/59/87 41/60/88 42/61/89 40/62/90
f 41/60/91 43/63/92 44/64/93 42/61/94
f 43/63/95 45/65/96 46/66/97 44/64/98
f 45/65/99 39/67/100 40/68/101 46/66/102
f 40/62/103 42/61/104 44/69/105 46/70/106
f 45/71/107 43/72/108 41/60/109 39/59/110
