# This file uses meters as units for non-parametric coordinates.

mtllib plot travaux.mtl
g default
v 14.495682 2.827795 -4.709932
v 12.330765 2.827795 -8.958824
v 8.958824 2.827795 -12.330764
v 4.709932 2.827795 -14.495681
v -0.000000 2.827795 -15.241659
v -4.709932 2.827795 -14.495680
v -8.958822 2.827795 -12.330761
v -12.330760 2.827795 -8.958821
v -14.495676 2.827795 -4.709931
v -15.241657 2.827795 -0.000000
v -14.495676 2.827795 4.709930
v -12.330758 2.827795 8.958820
v -8.958820 2.827795 12.330757
v -4.709931 2.827795 14.495674
v -0.000001 2.827795 15.241654
v 4.709929 2.827795 14.495673
v 8.958818 2.827795 12.330756
v 12.330756 2.827795 8.958819
v 14.495672 2.827795 4.709929
v 15.241652 2.827795 -0.000000
v 2.519144 49.820183 -0.818526
v 2.142916 49.820183 -1.556916
v 1.556912 49.820183 -2.142920
v 0.818521 49.820183 -2.519150
v -0.000002 49.820183 -2.648782
v -0.818525 49.820183 -2.519150
v -1.556915 49.820183 -2.142920
v -2.142920 49.820183 -1.556916
v -2.519148 49.820183 -0.818526
v -2.648782 49.820183 -0.000002
v -2.519148 49.820183 0.818521
v -2.142920 49.820183 1.556911
v -1.556915 49.820183 2.142915
v -0.818525 49.820183 2.519145
v -0.000002 49.820183 2.648777
v 0.818521 49.820183 2.519145
v 1.556911 49.820183 2.142915
v 2.142916 49.820183 1.556911
v 2.519144 49.820183 0.818521
v 2.648778 49.820183 -0.000002
v 0.000000 2.827795 0.000000
v 0.000000 49.820183 0.000000
v -20.000000 1.402869 20.000000
v 20.000000 1.402869 20.000000
v -20.000000 3.134264 20.000000
v 20.000000 3.134264 20.000000
v -20.000000 3.134264 -20.000000
v 20.000000 3.134264 -20.000000
v -20.000000 1.402869 -20.000000
v 20.000000 1.402869 -20.000000
vt 0.741513 0.872809
vt 0.752850 0.837916
vt 0.752850 0.801227
vt 0.741513 0.766333
vt 0.719948 0.736651
vt 0.690266 0.715086
vt 0.655372 0.703749
vt 0.618683 0.703749
vt 0.583790 0.715086
vt 0.554108 0.736652
vt 0.532543 0.766334
vt 0.521205 0.801227
vt 0.521205 0.837916
vt 0.532543 0.872809
vt 0.554108 0.902491
vt 0.583790 0.924056
vt 0.618683 0.935394
vt 0.655372 0.935394
vt 0.690266 0.924056
vt 0.719948 0.902491
vt 0.001546 0.526268
vt 0.037955 0.527741
vt 0.074125 0.532156
vt 0.109819 0.539484
vt 0.144803 0.549675
vt 0.178848 0.562664
vt 0.211730 0.578365
vt 0.243234 0.596676
vt 0.273152 0.617475
vt 0.301290 0.640627
vt 0.327462 0.665981
vt 0.351497 0.693369
vt 0.373236 0.722611
vt 0.392538 0.753518
vt 0.409276 0.785884
vt 0.423340 0.819499
vt 0.434638 0.854142
vt 0.443096 0.889585
vt 0.448657 0.925597
vt 0.451287 0.961940
vt 0.450967 0.998377
vt 0.001565 0.898018
vt 0.007892 0.898274
vt 0.014178 0.899042
vt 0.020381 0.900315
vt 0.026461 0.902086
vt 0.032377 0.904343
vt 0.038092 0.907072
vt 0.043567 0.910254
vt 0.048766 0.913869
vt 0.053656 0.917892
vt 0.058205 0.922298
vt 0.062381 0.927058
vt 0.066160 0.932140
vt 0.069514 0.937511
vt 0.072423 0.943136
vt 0.074867 0.948978
vt 0.076830 0.954998
vt 0.078300 0.961158
vt 0.079267 0.967416
vt 0.079724 0.973732
vt 0.079668 0.980064
vt 0.810807 0.875821
vt 0.812777 0.869757
vt 0.812777 0.863381
vt 0.810807 0.857317
vt 0.807059 0.852159
vt 0.801901 0.848411
vt 0.795837 0.846441
vt 0.789461 0.846441
vt 0.783397 0.848411
vt 0.778238 0.852159
vt 0.774491 0.857317
vt 0.772520 0.863381
vt 0.772520 0.869757
vt 0.774491 0.875821
vt 0.778238 0.880979
vt 0.783397 0.884727
vt 0.789461 0.886697
vt 0.795837 0.886697
vt 0.801901 0.884727
vt 0.807059 0.880979
vt 0.637028 0.819571
vt 0.792649 0.866569
vt 0.343769 0.004759
vt 0.664131 0.004742
vt 0.664131 0.018609
vt 0.343770 0.018626
vt 0.664148 0.338970
vt 0.343787 0.338987
vt 0.664149 0.352837
vt 0.343788 0.352854
vt 0.664166 0.673198
vt 0.343805 0.673216
vt 0.984492 0.004725
vt 0.984493 0.018592
vt 0.023408 0.004776
vt 0.023408 0.018643
vn 0.918644 0.258844 -0.298484
vn 0.781445 0.258844 -0.567753
vn 0.781445 0.258844 -0.567753
vn 0.918644 0.258844 -0.298484
vn 0.567753 0.258844 -0.781445
vn 0.567753 0.258844 -0.781445
vn 0.298485 0.258844 -0.918644
vn 0.298484 0.258844 -0.918644
vn -0.000000 0.258844 -0.965919
vn -0.000000 0.258844 -0.965919
vn -0.298485 0.258844 -0.918644
vn -0.298485 0.258844 -0.918644
vn -0.567754 0.258844 -0.781445
vn -0.567754 0.258844 -0.781445
vn -0.781445 0.258844 -0.567753
vn -0.781445 0.258844 -0.567753
vn -0.918644 0.258844 -0.298485
vn -0.918644 0.258844 -0.298485
vn -0.965919 0.258844 0.000000
vn -0.965919 0.258844 -0.000000
vn -0.918644 0.258844 0.298485
vn -0.918644 0.258844 0.298485
vn -0.781445 0.258844 0.567753
vn -0.781445 0.258844 0.567753
vn -0.567753 0.258844 0.781445
vn -0.567753 0.258844 0.781445
vn -0.298485 0.258844 0.918644
vn -0.298484 0.258844 0.918644
vn 0.000000 0.258844 0.965919
vn 0.000000 0.258844 0.965919
vn 0.298485 0.258844 0.918644
vn 0.298485 0.258844 0.918644
vn 0.567753 0.258844 0.781445
vn 0.567753 0.258844 0.781445
vn 0.781445 0.258844 0.567753
vn 0.781445 0.258844 0.567753
vn 0.918644 0.258844 0.298485
vn 0.918644 0.258844 0.298485
vn 0.965919 0.258844 0.000001
vn 0.965919 0.258844 0.000001
vn 0.000000 -1.000000 0.000000
vn 0.000000 -1.000000 0.000000
vn 0.000000 -1.000000 0.000000
vn 0.000000 -1.000000 -0.000000
vn 0.000000 -1.000000 0.000000
vn 0.000000 -1.000000 0.000000
vn 0.000000 -1.000000 0.000000
vn 0.000000 -1.000000 0.000000
vn 0.000000 -1.000000 0.000000
vn 0.000000 -1.000000 0.000000
vn 0.000000 -1.000000 0.000000
vn 0.000000 -1.000000 0.000000
vn 0.000000 -1.000000 0.000000
vn 0.000000 -1.000000 -0.000000
vn 0.000000 -1.000000 0.000000
vn 0.000000 -1.000000 -0.000000
vn 0.000000 -1.000000 -0.000000
vn 0.000000 -1.000000 0.000000
vn 0.000000 -1.000000 0.000000
vn 0.000000 -1.000000 0.000000
vn 0.000000 -1.000000 0.000000
vn 0.000000 1.000000 0.000004
vn 0.000000 1.000000 0.000000
vn 0.000000 1.000000 0.000001
vn 0.000000 1.000000 -0.000004
vn 0.000000 1.000000 0.000000
vn 0.000000 1.000000 -0.000000
vn 0.000000 1.000000 -0.000000
vn 0.000000 1.000000 0.000000
vn 0.000000 1.000000 0.000004
vn 0.000000 1.000000 0.000000
vn 0.000000 1.000000 0.000004
vn 0.000000 1.000000 0.000007
vn 0.000000 1.000000 0.000000
vn 0.000000 1.000000 0.000000
vn 0.000000 1.000000 0.000000
vn 0.000000 1.000000 -0.000000
vn 0.000000 1.000000 -0.000000
vn 0.000000 1.000000 0.000000
vn 0.000000 1.000000 0.000000
vn 0.000000 1.000000 0.000000
vn 0.000000 1.000000 0.000000
vn 0.000000 0.000000 1.000000
vn 0.000000 0.000000 1.000000
vn 0.000000 0.000000 1.000000
vn 0.000000 0.000000 1.000000
vn 0.000000 1.000000 0.000000
vn 0.000000 1.000000 0.000000
vn 0.000000 1.000000 0.000000
vn 0.000000 1.000000 0.000000
vn 0.000000 0.000000 -1.000000
vn 0.000000 0.000000 -1.000000
vn 0.000000 0.000000 -1.000000
vn 0.000000 0.000000 -1.000000
vn 0.000000 -1.000000 0.000000
vn 0.000000 -1.000000 0.000000
vn 0.000000 -1.000000 0.000000
vn 0.000000 -1.000000 0.000000
vn 1.000000 0.000000 0.000000
vn 1.000000 0.000000 0.000000
vn 1.000000 0.000000 0.000000
vn 1.000000 0.000000 0.000000
vn -1.000000 0.000000 0.000000
vn -1.000000 0.000000 0.000000
vn -1.000000 0.000000 0.000000
vn -1.000000 0.000000 0.000000
s 1
g plot_40cm1_pCylinder1
usemtl initialShadingGroup
f 1/21/1 2/22/2 22/43/3 21/42/4
f 2/22/2 3/23/5 23/44/6 22/43/3
f 3/23/5 4/24/7 24/45/8 23/44/6
f 4/24/7 5/25/9 25/46/10 24/45/8
f 5/25/9 6/26/11 26/47/12 25/46/10
f 6/26/11 7/27/13 27/48/14 26/47/12
f 7/27/13 8/28/15 28/49/16 27/48/14
f 8/28/15 9/29/17 29/50/18 28/49/16
f 9/29/17 10/30/19 30/51/20 29/50/18
f 10/30/19 11/31/21 31/52/22 30/51/20
f 11/31/21 12/32/23 32/53/24 31/52/22
f 12/32/23 13/33/25 33/54/26 32/53/24
f 13/33/25 14/34/27 34/55/28 33/54/26
f 14/34/27 15/35/29 35/56/30 34/55/28
f 15/35/29 16/36/31 36/57/32 35/56/30
f 16/36/31 17/37/33 37/58/34 36/57/32
f 17/37/33 18/38/35 38/59/36 37/58/34
f 18/38/35 19/39/37 39/60/38 38/59/36
f 19/39/37 20/40/39 40/61/40 39/60/38
f 20/40/39 1/41/1 21/62/4 40/61/40
s 2
f 2/2/41 1/1/42 41/83/43
f 3/3/44 2/2/41 41/83/43
f 4/4/45 3/3/44 41/83/43
f 5/5/46 4/4/45 41/83/43
f 6/6/47 5/5/46 41/83/43
f 7/7/48 6/6/47 41/83/43
f 8/8/49 7/7/48 41/83/43
f 9/9/50 8/8/49 41/83/43
f 10/10/51 9/9/50 41/83/43
f 11/11/52 10/10/51 41/83/43
f 12/12/53 11/11/52 41/83/43
f 13/13/54 12/12/53 41/83/43
f 14/14/55 13/13/54 41/83/43
f 15/15/56 14/14/55 41/83/43
f 16/16/57 15/15/56 41/83/43
f 17/17/58 16/16/57 41/83/43
f 18/18/59 17/17/58 41/83/43
f 19/19/60 18/18/59 41/83/43
f 20/20/61 19/19/60 41/83/43
f 1/1/42 20/20/61 41/83/43
s 3
f 21/81/62 22/80/63 42/84/64
f 22/80/63 23/79/65 42/84/64
f 23/79/65 24/78/66 42/84/64
f 24/78/66 25/77/67 42/84/64
f 25/77/67 26/76/68 42/84/64
f 26/76/68 27/75/69 42/84/64
f 27/75/69 28/74/70 42/84/64
f 28/74/70 29/73/71 42/84/64
f 29/73/71 30/72/72 42/84/64
f 30/72/72 31/71/73 42/84/64
f 31/71/73 32/70/74 42/84/64
f 32/70/74 33/69/75 42/84/64
f 33/69/75 34/68/76 42/84/64
f 34/68/76 35/67/77 42/84/64
f 35/67/77 36/66/78 42/84/64
f 36/66/78 37/65/79 42/84/64
f 37/65/79 38/64/80 42/84/64
f 38/64/80 39/63/81 42/84/64
f 39/63/81 40/82/82 42/84/64
f 40/82/82 21/81/62 42/84/64
s off
f 43/85/83 44/86/84 46/87/85 45/88/86
f 45/88/87 46/87/88 48/89/89 47/90/90
f 47/90/91 48/89/92 50/91/93 49/92/94
f 49/92/95 50/91/96 44/93/97 43/94/98
f 44/86/99 50/95/100 48/96/101 46/87/102
f 49/97/103 43/85/104 45/88/105 47/98/106
